<?xml version="1.0" standalone="no"?>
<!DOCTYPE svg PUBLIC "-//W3C//DTD SVG 20010904//EN"
 "http://www.w3.org/TR/2001/REC-SVG-20010904/DTD/svg10.dtd">
<svg version="1.0" xmlns="http://www.w3.org/2000/svg"
 width="1267.000000pt" height="1280.000000pt" viewBox="0 0 1267.000000 1280.000000"
 preserveAspectRatio="xMidYMid meet">
<metadata>
Created by potrace 1.15, written by Peter Selinger 2001-2017
</metadata>
<g transform="translate(0.000000,1280.000000) scale(0.100000,-0.100000)"
fill="#000000" stroke="none">
<path d="M3315 12794 c-314 -48 -559 -176 -823 -429 -171 -164 -319 -350 -483
-610 -51 -81 -63 -109 -65 -145 -1 -25 -5 -64 -9 -87 l-8 -43 39 0 39 -1 -47
-40 c-31 -26 -48 -49 -48 -63 0 -22 37 -66 56 -66 5 0 15 -4 23 -9 12 -8 4
-20 -38 -59 -47 -45 -52 -52 -41 -71 9 -18 7 -33 -9 -79 -11 -32 -21 -80 -23
-107 l-3 -50 34 -3 c22 -2 40 3 55 16 20 18 56 36 56 27 0 -2 -20 -43 -45 -91
-25 -47 -45 -97 -45 -110 0 -38 25 -89 55 -112 26 -20 30 -21 51 -7 21 14 25
13 58 -18 34 -32 34 -34 25 -79 -6 -26 -9 -64 -7 -85 3 -33 7 -39 33 -43 21
-4 39 -19 67 -59 34 -49 49 -91 31 -91 -4 0 -22 5 -40 12 -28 10 -36 10 -50
-5 -15 -15 -15 -23 1 -124 40 -249 105 -463 196 -643 27 -52 58 -124 70 -159
61 -184 137 -257 225 -215 41 19 52 15 34 -14 -11 -18 -4 -42 56 -184 38 -89
92 -215 121 -278 41 -90 50 -117 40 -125 -7 -5 -63 -86 -126 -180 -113 -171
-164 -235 -186 -235 -6 0 -160 -93 -340 -206 -425 -267 -756 -464 -986 -587
-101 -54 -215 -121 -254 -148 -69 -49 -221 -150 -473 -315 -73 -48 -157 -109
-186 -136 -44 -40 -59 -48 -92 -48 -55 0 -141 -46 -179 -96 -53 -71 -69 -140
-69 -299 1 -104 7 -169 23 -253 28 -139 88 -349 108 -381 12 -17 13 -26 5 -34
-6 -6 -11 -45 -11 -86 0 -80 21 -186 65 -336 40 -137 54 -264 65 -596 11 -334
22 -451 48 -489 11 -15 19 -48 20 -85 4 -104 32 -412 57 -645 94 -852 262
-1701 500 -2530 74 -256 184 -609 228 -729 27 -71 50 -92 75 -67 15 14 13 25
-18 123 -18 60 -34 119 -34 133 l-1 25 630 -3 c2294 -13 2797 -19 2807 -36 11
-19 42 -21 55 -3 6 6 20 50 32 97 24 92 71 240 76 240 2 0 20 -24 41 -52 112
-157 234 -236 234 -154 0 18 -9 30 -29 40 -47 25 -211 222 -211 255 0 6 32 95
71 199 l70 189 107 60 c59 34 193 106 297 161 l190 100 260 26 c143 14 308 29
367 32 l106 7 -54 -179 c-63 -205 -149 -535 -159 -610 -5 -38 -3 -53 8 -62 11
-10 13 -36 9 -130 -4 -104 -2 -124 16 -164 24 -55 39 -65 162 -113 94 -37 97
-37 305 -47 204 -9 456 -6 543 8 28 4 42 2 42 -5 0 -7 29 -11 84 -11 101 0
208 -19 336 -61 166 -54 305 -50 636 16 174 36 477 115 682 179 128 41 142 43
142 20 0 -29 40 -89 77 -114 41 -28 144 -39 206 -22 36 10 37 10 91 -49 30
-32 57 -67 61 -78 6 -21 38 -36 55 -26 5 3 10 -1 10 -9 0 -21 29 -35 93 -42
88 -10 169 28 196 95 11 26 8 38 -45 142 -31 63 -65 126 -75 140 l-19 26 63
54 c34 30 100 91 148 136 l85 82 28 -19 c16 -10 45 -40 65 -66 48 -64 94 -94
143 -94 77 0 136 55 167 155 16 52 20 56 82 87 76 37 224 181 393 380 59 71
114 128 121 128 8 0 40 21 72 47 32 25 63 50 69 55 7 5 45 0 95 -14 184 -48
295 -23 409 92 55 57 60 60 55 34 -20 -89 -43 -159 -78 -244 -21 -52 -46 -112
-54 -132 -19 -46 -13 -62 26 -76 41 -14 53 -1 81 85 42 127 150 391 223 545
74 156 181 345 382 678 266 441 354 639 420 950 20 95 26 147 24 220 -2 52 1
106 5 118 6 19 -3 40 -48 107 -69 104 -268 353 -367 459 -74 80 -205 185 -267
214 -20 10 -43 35 -62 68 -38 68 -138 174 -216 230 -67 48 -184 105 -251 123
-35 10 -55 27 -125 109 -45 53 -117 133 -159 177 -41 44 -97 109 -124 145 -76
101 -229 253 -309 309 -39 27 -113 70 -163 95 -171 86 -386 272 -485 420 -79
118 -159 196 -240 234 -65 30 -137 99 -170 160 -28 52 -73 74 -143 69 -55 -3
-61 -1 -80 22 -61 78 -279 335 -391 459 -164 183 -425 519 -464 597 -22 46
-58 89 -144 172 l-114 111 -31 99 c-23 76 -53 136 -135 273 -58 97 -122 193
-142 214 -69 71 -177 103 -250 76 -16 -7 -31 -7 -38 -1 -22 18 -94 30 -321 55
-628 69 -1179 104 -1760 112 l-360 5 -72 40 c-63 34 -73 43 -68 62 5 24 21
293 31 534 4 83 9 155 13 160 3 5 22 19 42 31 39 24 89 106 108 178 6 22 20
142 31 267 18 196 19 253 11 429 -8 165 -14 215 -31 268 -42 125 -65 148 -104
105 -13 -14 -26 -25 -29 -25 -8 0 -13 91 -19 317 -4 151 -2 200 7 197 6 -3 19
4 28 14 16 17 14 26 -18 148 -99 374 -227 629 -404 804 -141 140 -270 200
-433 204 l-87 2 -94 70 c-148 111 -336 200 -517 244 -83 20 -314 35 -385 24z
m670 -1254 c-35 -14 -247 -71 -251 -67 -6 6 227 76 251 76 l20 0 -20 -9z
m1221 -945 c-14 -30 -27 -55 -29 -55 -2 0 7 30 19 68 13 37 24 78 25 92 2 15
4 10 6 -13 3 -25 -4 -55 -21 -92z m-597 -213 c35 -26 36 -38 7 -65 -68 -63
-200 -107 -323 -107 -72 0 -85 3 -107 24 -31 28 -32 36 -5 70 l20 26 25 -30
c55 -65 171 -65 236 0 31 31 38 45 38 78 l0 40 43 -9 c23 -5 53 -18 66 -27z
m-1280 -191 c52 -27 65 -45 51 -70 -6 -12 -23 -24 -38 -27 -15 -3 -56 -14 -92
-24 -156 -44 -242 -48 -286 -15 -18 13 -18 14 3 36 l23 23 22 -21 c50 -45 89
-53 161 -31 59 18 97 60 97 109 0 44 6 47 59 20z m-780 -904 c6 -8 29 -22 51
-32 32 -14 38 -21 29 -32 -24 -29 -68 -5 -98 55 -13 24 0 30 18 9z m1815 -278
c-42 -44 -194 -115 -309 -145 -176 -45 -388 -23 -501 50 -38 26 -24 29 52 11
38 -9 104 -20 146 -25 145 -17 361 23 542 99 50 21 93 39 95 40 3 1 -8 -13
-25 -30z m885 -804 c236 -936 255 -1007 308 -1149 24 -65 42 -120 40 -122 -2
-2 -53 26 -113 62 -208 124 -502 256 -681 304 l-82 23 30 59 c16 32 44 78 62
101 50 66 112 191 150 307 119 354 187 613 187 712 0 26 4 38 9 33 5 -6 46
-154 90 -330z m2710 244 c13 -11 21 -22 19 -25 -3 -3 -19 6 -34 20 -34 30 -20
35 15 5z m-4867 -358 c165 -194 418 -363 868 -583 224 -109 320 -149 402 -168
61 -14 148 -41 148 -45 0 -2 -46 -70 -102 -152 -140 -203 -435 -652 -488 -740
-23 -40 -44 -73 -45 -73 -7 0 -163 191 -240 294 -70 95 -105 158 -238 431
-217 448 -322 701 -392 941 -31 107 -65 271 -65 314 0 28 6 20 45 -56 24 -49
73 -122 107 -163z m2477 -811 c0 -9 -4 -8 -9 5 -5 11 -9 27 -9 35 0 9 4 8 9
-5 5 -11 9 -27 9 -35z m-2170 -395 c1 -21 -65 95 -125 220 -99 207 -84 198 25
-15 55 -107 100 -199 100 -205z m2217 228 c-5 -6 -46 123 -45 141 1 6 12 -22
25 -63 14 -41 22 -76 20 -78z m-499 -6 c195 -88 510 -275 532 -316 16 -29 394
-1161 520 -1556 147 -460 180 -571 190 -652 5 -37 19 -90 30 -117 24 -54 46
-270 35 -334 -16 -91 -247 -1059 -255 -1066 -5 -5 -35 159 -215 1169 -52 292
-113 604 -135 695 -104 420 -319 971 -564 1448 -47 90 -87 180 -91 200 -5 28
-101 346 -169 563 -4 10 -4 19 -1 19 2 0 58 -24 123 -53z m-785 -457 c99 -100
141 -175 180 -318 23 -88 25 -160 9 -477 -14 -255 -14 -1064 -1 -1345 5 -118
17 -322 26 -453 9 -131 14 -240 11 -243 -6 -6 -42 110 -122 401 -187 672 -439
1432 -657 1978 -51 128 -95 237 -97 242 -2 6 12 -8 30 -30 18 -22 61 -68 95
-103 83 -84 94 -83 154 24 66 119 261 414 273 414 6 0 50 -41 99 -90z m6403
-1186 c17 -14 21 -21 10 -16 -30 16 -61 41 -50 41 6 0 24 -11 40 -25z m-2500
-795 c144 -150 369 -332 505 -408 41 -23 95 -62 120 -85 124 -118 552 -450
722 -561 50 -32 82 -60 90 -79 23 -55 106 -171 161 -225 30 -29 102 -86 159
-125 84 -59 111 -84 145 -137 24 -35 54 -73 67 -84 34 -29 47 -96 35 -180 -5
-39 -8 -142 -5 -230 l5 -160 -30 -48 c-17 -27 -29 -56 -27 -66 3 -16 -48 -91
-61 -91 -4 0 -15 16 -26 36 -40 74 -143 156 -286 228 -211 105 -281 109 -476
25 -145 -61 -194 -66 -405 -41 -206 26 -250 27 -343 7 -107 -23 -226 -85 -357
-185 l-27 -21 -34 68 c-40 81 -91 229 -112 330 -66 320 -78 810 -29 1194 20
158 72 425 89 458 7 15 25 115 40 224 16 108 31 197 35 197 3 0 24 -19 45 -41z
m3477 -81 c51 -47 51 -48 8 -15 -25 19 -71 51 -102 72 -32 21 -58 40 -58 42 0
13 107 -57 152 -99z m-3691 -364 c-6 -28 -9 -32 -10 -14 -1 30 11 79 16 64 2
-6 -1 -28 -6 -50z m1922 -874 c59 -57 106 -105 103 -107 -8 -8 -127 81 -172
129 -23 23 -54 61 -70 83 l-29 39 30 -21 c17 -11 79 -67 138 -123z m-9436
-322 c-3 -7 -5 -2 -5 12 0 14 2 19 5 13 2 -7 2 -19 0 -25z m10 -75 c-3 -10 -5
-4 -5 12 0 17 2 24 5 18 2 -7 2 -21 0 -30z m10 -70 c-3 -10 -5 -2 -5 17 0 19
2 27 5 18 2 -10 2 -26 0 -35z m10 -60 c-3 -10 -5 -4 -5 12 0 17 2 24 5 18 2
-7 2 -21 0 -30z m10 -70 c-3 -10 -5 -4 -5 12 0 17 2 24 5 18 2 -7 2 -21 0 -30z
m10 -65 c-3 -7 -5 -2 -5 12 0 14 2 19 5 13 2 -7 2 -19 0 -25z m10398 -3 c314
-105 464 -261 574 -598 44 -135 81 -272 81 -298 0 -10 -32 -37 -77 -67 -102
-66 -266 -162 -271 -157 -2 2 8 20 22 42 58 87 73 200 36 261 -11 18 -20 45
-20 60 0 15 -8 43 -18 62 -11 19 -30 55 -43 80 -60 112 -243 251 -401 305
l-83 28 -207 -16 c-113 -8 -216 -20 -227 -27 -12 -6 -21 -9 -21 -8 0 2 16 39
35 83 19 44 35 92 35 106 0 18 14 39 44 67 50 46 88 68 166 94 83 28 266 20
375 -17z m-225 -409 c0 -30 4 -66 10 -81 16 -42 -9 -19 -31 29 -28 62 -25 106
8 106 9 0 13 -16 13 -54z m-110 6 c0 -49 37 -123 96 -190 37 -43 44 -56 33
-63 -8 -5 -18 -9 -22 -9 -26 0 -167 123 -167 147 0 7 -11 19 -24 28 -20 13
-37 14 -122 5 -54 -6 -117 -15 -139 -20 -79 -18 -83 -14 -35 36 70 72 108 87
235 94 61 4 118 7 128 8 13 2 17 -6 17 -36z m254 4 c159 -70 335 -242 312
-303 -15 -38 -142 11 -258 100 -86 64 -120 112 -126 177 -5 58 -3 59 72 26z
m-24 -344 c-15 -5 -51 28 -44 40 3 5 17 -1 31 -14 14 -13 19 -24 13 -26z m307
-36 c60 0 70 -3 60 -14 -26 -32 -199 18 -267 77 -15 12 8 4 55 -21 73 -39 87
-42 152 -42z m-184 -35 c28 -16 76 -36 106 -45 61 -18 157 -21 166 -6 12 19
25 -1 25 -38 0 -63 -93 -228 -161 -287 l-23 -20 21 35 c60 103 58 97 43 127
-27 53 -61 92 -118 134 -75 56 -122 100 -122 116 0 18 3 17 63 -16z m-5133
-137 c0 -8 -5 -12 -10 -9 -6 4 -8 11 -5 16 9 14 15 11 15 -7z m5240 -126 c0
-5 -4 -8 -10 -8 -5 0 -10 10 -10 23 0 18 2 19 10 7 5 -8 10 -18 10 -22z
m-4640 -194 c0 -6 10 -19 21 -30 25 -22 69 -89 69 -105 0 -7 -40 -10 -132 -8
-73 2 -139 0 -147 -5 -10 -6 -12 -4 -7 10 25 86 58 191 61 202 5 15 135 -46
135 -64z m202 -136 c-11 -11 -32 -3 -32 12 0 4 9 6 21 3 13 -4 17 -9 11 -15z
m2850 -426 c5 -5 -15 -34 -45 -68 l-54 -59 -42 29 c-23 16 -44 32 -46 36 -2 3
13 23 32 44 36 37 38 38 91 33 30 -3 59 -10 64 -15z"/>
</g>
</svg>
