<?xml version="1.0" standalone="no"?>
<!DOCTYPE svg PUBLIC "-//W3C//DTD SVG 20010904//EN"
 "http://www.w3.org/TR/2001/REC-SVG-20010904/DTD/svg10.dtd">
<svg version="1.0" xmlns="http://www.w3.org/2000/svg"
 width="2048.000000pt" height="2048.000000pt" viewBox="0 0 2048.000000 2048.000000"
 preserveAspectRatio="xMidYMid meet">

<g transform="translate(0.000000,2048.000000) scale(0.100000,-0.100000)"
fill="#000000" stroke="none">
<path d="M10074 20231 c-80 -20 183 114 -3819 -1941 -1742 -894 -2746 -1415
-2774 -1439 -57 -47 -104 -115 -131 -188 l-21 -57 1 -1412 1 -1412 -57 -29
c-195 -98 -339 -310 -364 -538 -5 -44 -28 -439 -51 -877 -36 -680 -41 -803
-30 -840 17 -55 83 -122 136 -137 54 -15 1054 -15 1108 0 52 14 112 71 133
125 16 43 16 89 -5 877 -12 458 -27 861 -32 897 -35 227 -169 412 -364 505
l-55 26 0 1125 0 1126 547 -277 c1328 -672 1313 -665 1308 -688 -10 -41 -74
-552 -104 -827 -36 -326 -57 -560 -71 -801 -8 -140 -14 -184 -30 -217 -20 -41
-20 -62 -18 -3169 l3 -3128 28 -80 c64 -182 176 -318 317 -388 137 -68 1033
-386 1090 -387 8 0 -57 -38 -145 -83 -88 -45 -198 -107 -245 -137 -685 -437
-1158 -1101 -1350 -1894 -83 -342 -92 -510 -88 -1756 l3 -985 25 -45 c14 -24
45 -58 68 -75 l44 -30 5138 -3 5138 -2 53 28 c43 22 59 38 82 82 l28 54 -4
1110 c-3 1096 -3 1113 -25 1251 -63 388 -145 652 -307 980 -269 545 -661 974
-1180 1292 -55 34 -167 94 -248 134 l-148 73 263 87 c282 93 628 220 745 274
194 89 337 243 400 429 l28 81 6 2095 c5 1908 7 2101 22 2160 24 93 22 279 -3
399 -19 88 -20 134 -20 746 0 629 1 654 20 696 15 33 20 66 20 134 0 217 -72
835 -186 1579 -30 197 -53 360 -52 361 2 1 473 240 1048 531 973 493 1049 533
1107 588 85 79 124 159 130 270 12 182 -76 325 -255 419 -37 19 -1493 767
-3236 1661 -2756 1415 -3179 1629 -3250 1646 -104 25 -272 26 -372 1z m1301
-6316 c121 -8 234 -17 251 -20 27 -5 40 -21 112 -143 416 -696 1044 -1266
1748 -1586 234 -107 556 -216 635 -216 75 0 194 -31 278 -72 148 -73 267 -214
306 -363 56 -216 -46 -467 -240 -590 -85 -54 -158 -76 -288 -85 -100 -7 -124
-12 -162 -34 -63 -37 -90 -90 -115 -221 -208 -1090 -887 -2028 -1865 -2576
-692 -387 -1494 -533 -2290 -418 -655 95 -1249 351 -1763 762 -162 129 -430
396 -558 557 -384 483 -645 1053 -754 1650 -26 141 -43 182 -92 225 -46 39
-102 55 -193 55 -291 0 -533 244 -537 540 -3 152 43 277 140 382 104 113 220
170 373 183 106 9 878 131 1044 165 994 201 1962 638 2780 1255 194 146 366
291 535 449 l135 126 150 -5 c83 -3 249 -12 370 -20z m-7720 -553 c25 -17 51
-49 69 -85 l29 -57 18 -637 c10 -351 18 -675 19 -720 l0 -83 -268 0 -269 0 4
53 c2 28 19 345 38 703 38 706 38 709 100 782 74 86 175 104 260 44z m5933
-6178 c434 -73 941 -73 1367 -1 l135 24 0 -349 c0 -318 -2 -353 -19 -403 -70
-198 -344 -448 -720 -656 l-111 -61 -113 62 c-376 210 -649 458 -718 655 -17
50 -19 85 -19 411 l0 356 26 -6 c15 -4 92 -18 172 -32z"/>
<path d="M8154 12110 c-120 -18 -233 -77 -320 -167 -204 -213 -202 -554 6
-764 80 -81 154 -123 262 -151 419 -106 787 288 658 705 -77 249 -347 417
-606 377z"/>
<path d="M12158 12110 c-296 -46 -508 -341 -458 -638 26 -156 135 -313 272
-390 177 -101 418 -91 585 24 279 192 322 595 89 837 -126 130 -311 194 -488
167z"/>
<path d="M8967 9759 c-98 -23 -174 -80 -231 -173 -62 -100 -71 -134 -70 -256
1 -160 57 -366 149 -550 292 -582 923 -930 1592 -879 404 30 740 184 1024 468
228 229 385 514 454 825 26 117 18 243 -23 329 -37 80 -131 175 -211 215 l-56
27 -1295 2 c-735 0 -1311 -3 -1333 -8z m2503 -437 c0 -31 -40 -163 -75 -248
-65 -156 -192 -344 -301 -443 -303 -278 -731 -376 -1147 -265 -423 113 -745
445 -838 863 -10 47 -19 92 -19 99 0 9 245 12 1190 12 1132 0 1190 -1 1190
-18z"/>
</g>
</svg>
